<svg width="455" height="294" viewBox="0 0 455 294" fill="none" xmlns="http://www.w3.org/2000/svg">
<g filter="url(#filter0_b_0_2929)">
<g clip-path="url(#clip0_0_2929)">
<rect x="0.498573" y="0.994873" width="454" height="293" rx="22" fill="#F2F3F8"/>
<g opacity="0.44">
<path d="M60.5622 30.8509C61.8902 31.3949 62.5542 32.3469 62.5542 33.7069C62.5542 34.7149 62.1542 35.5709 61.3542 36.2749C60.5542 36.9629 59.4182 37.3069 57.9462 37.3069C55.5462 37.3069 53.9382 36.3469 53.1222 34.4269L54.8742 33.3949C55.3382 34.7069 56.3702 35.3629 57.9702 35.3629C58.7702 35.3629 59.3862 35.1949 59.8182 34.8589C60.2662 34.5069 60.4902 34.0589 60.4902 33.5149C60.4902 33.0349 60.3062 32.6429 59.9382 32.3389C59.5862 32.0349 59.1062 31.8829 58.4982 31.8829H56.7462V29.9869H58.0422C58.6502 29.9869 59.1222 29.8429 59.4582 29.5549C59.7942 29.2509 59.9622 28.8429 59.9622 28.3309C59.9622 27.8189 59.7622 27.4029 59.3622 27.0829C58.9782 26.7629 58.4422 26.6029 57.7542 26.6029C56.4102 26.6029 55.4982 27.1709 55.0182 28.3069L53.3142 27.3229C54.1622 25.5629 55.6422 24.6829 57.7542 24.6829C59.0662 24.6829 60.0982 25.0189 60.8502 25.6909C61.6182 26.3629 62.0022 27.1869 62.0022 28.1629C62.0022 29.3789 61.5222 30.2749 60.5622 30.8509ZM73.7926 24.9949H75.8806V36.9949H73.7926V34.9309C72.7526 36.5149 71.2406 37.3069 69.2566 37.3069C67.5766 37.3069 66.1446 36.6989 64.9606 35.4829C63.7766 34.2509 63.1846 32.7549 63.1846 30.9949C63.1846 29.2349 63.7766 27.7469 64.9606 26.5309C66.1446 25.2989 67.5766 24.6829 69.2566 24.6829C71.2406 24.6829 72.7526 25.4749 73.7926 27.0589V24.9949ZM69.5206 35.2909C70.7366 35.2909 71.7526 34.8829 72.5686 34.0669C73.3846 33.2349 73.7926 32.2109 73.7926 30.9949C73.7926 29.7789 73.3846 28.7629 72.5686 27.9469C71.7526 27.1149 70.7366 26.6989 69.5206 26.6989C68.3206 26.6989 67.3126 27.1149 66.4966 27.9469C65.6806 28.7629 65.2726 29.7789 65.2726 30.9949C65.2726 32.2109 65.6806 33.2349 66.4966 34.0669C67.3126 34.8829 68.3206 35.2909 69.5206 35.2909ZM90.0841 24.9949V36.9949H88.0441V28.2829L84.2281 34.4269H83.9641L80.1481 28.2829V36.9949H78.0841V24.9949H80.3161L84.0841 31.0669L87.8521 24.9949H90.0841ZM93.7756 31.9549C93.9836 33.0269 94.4716 33.8589 95.2396 34.4509C96.0236 35.0429 96.9836 35.3389 98.1196 35.3389C99.7036 35.3389 100.856 34.7549 101.576 33.5869L103.352 34.5949C102.184 36.4029 100.424 37.3069 98.0716 37.3069C96.1676 37.3069 94.6156 36.7149 93.4156 35.5309C92.2316 34.3309 91.6396 32.8189 91.6396 30.9949C91.6396 29.1869 92.2236 27.6829 93.3916 26.4829C94.5596 25.2829 96.0716 24.6829 97.9276 24.6829C99.6876 24.6829 101.12 25.3069 102.224 26.5549C103.344 27.7869 103.904 29.2749 103.904 31.0189C103.904 31.3229 103.88 31.6349 103.832 31.9549H93.7756ZM97.9276 26.6509C96.8076 26.6509 95.8796 26.9709 95.1436 27.6109C94.4076 28.2349 93.9516 29.0749 93.7756 30.1309H101.792C101.616 28.9949 101.168 28.1309 100.448 27.5389C99.7276 26.9469 98.8876 26.6509 97.9276 26.6509ZM113.803 24.9949V27.0109H109.723V36.9949H107.635V27.0109H103.531V24.9949H113.803ZM124.825 36.9949H122.233L116.761 31.3069V36.9949H114.673V24.9949H116.761V30.2989L121.945 24.9949H124.633L118.897 30.8029L124.825 36.9949ZM134.641 24.9949H136.729V36.9949H134.641V34.9309C133.601 36.5149 132.089 37.3069 130.105 37.3069C128.425 37.3069 126.993 36.6989 125.809 35.4829C124.625 34.2509 124.033 32.7549 124.033 30.9949C124.033 29.2349 124.625 27.7469 125.809 26.5309C126.993 25.2989 128.425 24.6829 130.105 24.6829C132.089 24.6829 133.601 25.4749 134.641 27.0589V24.9949ZM130.369 35.2909C131.585 35.2909 132.601 34.8829 133.417 34.0669C134.233 33.2349 134.641 32.2109 134.641 30.9949C134.641 29.7789 134.233 28.7629 133.417 27.9469C132.601 27.1149 131.585 26.6989 130.369 26.6989C129.169 26.6989 128.161 27.1149 127.345 27.9469C126.529 28.7629 126.121 29.7789 126.121 30.9949C126.121 32.2109 126.529 33.2349 127.345 34.0669C128.161 34.8829 129.169 35.2909 130.369 35.2909Z" fill="#142251"/>
<path d="M35.9616 22.5708C35.2743 21.8211 34.0332 21.7749 33.2059 22.6022L25.1059 30.7022C24.8964 30.9117 24.8964 31.1785 25.1059 31.388C25.3154 31.5975 25.5822 31.5975 25.7917 31.388L32.4917 24.688C32.8822 24.2975 33.5154 24.2975 33.9059 24.688C34.2964 25.0785 34.2964 25.7117 33.9059 26.1022L27.2059 32.8022C26.2154 33.7928 24.6822 33.7928 23.6917 32.8022C22.7011 31.8117 22.7011 30.2785 23.6917 29.288L31.7917 21.188C33.3592 19.6205 35.9066 19.5695 37.4211 21.2033C38.9734 22.7717 39.0191 25.3067 37.3917 26.8164L27.9059 36.3022C25.7154 38.4928 22.2822 38.4928 20.0917 36.3022C17.9011 34.1117 17.9011 30.6785 20.0917 28.488L28.1917 20.388C28.5822 19.9975 29.2154 19.9975 29.6059 20.388C29.9964 20.7785 29.9964 21.4117 29.6059 21.8022L21.5059 29.9022C20.0964 31.3117 20.0964 33.4785 21.5059 34.888C22.9154 36.2975 25.0822 36.2975 26.4917 34.888L35.9917 25.388C36.0019 25.3778 36.0124 25.3678 36.0231 25.358C36.7728 24.6707 36.819 23.4296 35.9917 22.6022C35.9814 22.592 35.9714 22.5815 35.9616 22.5708Z" fill="#142251"/>
<path d="M419.342 22.2878C419.733 21.8972 420.366 21.8972 420.756 22.2878L426.049 27.5807L431.342 22.2878C431.733 21.8972 432.366 21.8972 432.756 22.2878C433.147 22.6783 433.147 23.3115 432.756 23.702L427.463 28.9949L432.756 34.2878C433.147 34.6783 433.147 35.3115 432.756 35.702C432.366 36.0925 431.733 36.0925 431.342 35.702L426.049 30.4091L420.756 35.702C420.366 36.0925 419.733 36.0925 419.342 35.702C418.952 35.3115 418.952 34.6783 419.342 34.2878L424.635 28.9949L419.342 23.702C418.952 23.3115 418.952 22.6783 419.342 22.2878Z" fill="#142251"/>
<path d="M374.341 20.2875C374.732 19.897 375.365 19.897 375.755 20.2875L378.755 23.2875C379.146 23.678 379.146 24.3112 378.755 24.7017L369.755 33.7017C369.568 33.8893 369.313 33.9946 369.048 33.9946H366.048C365.496 33.9946 365.048 33.5469 365.048 32.9946V29.9946C365.048 29.7294 365.154 29.4751 365.341 29.2875L374.341 20.2875ZM367.048 30.4088V31.9946H368.634L376.634 23.9946L375.048 22.4088L367.048 30.4088ZM361.048 23.9946C361.048 22.8901 361.944 21.9946 363.048 21.9946H368.048C368.601 21.9946 369.048 22.4423 369.048 22.9946C369.048 23.5469 368.601 23.9946 368.048 23.9946H363.048V35.9946H375.048V30.9946C375.048 30.4423 375.496 29.9946 376.048 29.9946C376.601 29.9946 377.048 30.4423 377.048 30.9946V35.9946C377.048 37.0992 376.153 37.9946 375.048 37.9946H363.048C361.944 37.9946 361.048 37.0992 361.048 35.9946V23.9946Z" fill="#142251"/>
</g>
<path d="M417.756 269.016C417.366 268.625 417.366 267.992 417.756 267.602L427.656 257.702C428.046 257.312 428.68 257.312 429.07 257.702C429.461 258.093 429.461 258.726 429.07 259.116L419.171 269.016C418.78 269.406 418.147 269.406 417.756 269.016ZM422.706 271.137C422.316 270.747 422.316 270.114 422.706 269.723L429.777 262.652C430.168 262.261 430.801 262.261 431.191 262.652C431.582 263.043 431.582 263.676 431.191 264.066L424.12 271.137C423.73 271.528 423.097 271.528 422.706 271.137ZM427.656 273.259C427.265 272.868 427.265 272.235 427.656 271.844L431.899 267.602C432.289 267.211 432.922 267.211 433.313 267.602C433.703 267.992 433.703 268.625 433.313 269.016L429.07 273.259C428.68 273.649 428.046 273.649 427.656 273.259Z" fill="#142251" fill-opacity="0.44"/>
<rect x="0.498116" y="56.9946" width="454" height="1" fill="#E4E7F1"/>
<path d="M235.911 153.202C239.077 166.049 231.065 180.512 215.205 193.533C199.377 206.528 175.867 217.96 148.426 224.722C120.984 231.483 94.8544 232.282 74.8005 228.129C54.7067 223.967 40.893 214.882 37.7276 202.036C34.5621 189.189 42.5734 174.726 58.4334 161.705C74.262 148.71 97.7716 137.278 125.213 130.516C152.655 123.755 178.784 122.956 198.838 127.109C218.932 131.271 232.746 140.356 235.911 153.202Z" stroke="#C3C7CF"/>
</g>
</g>
<defs>
<filter id="filter0_b_0_2929" x="-39.5014" y="-39.0051" width="534" height="373" filterUnits="userSpaceOnUse" color-interpolation-filters="sRGB">
<feFlood flood-opacity="0" result="BackgroundImageFix"/>
<feGaussianBlur in="BackgroundImageFix" stdDeviation="20"/>
<feComposite in2="SourceAlpha" operator="in" result="effect1_backgroundBlur_0_2929"/>
<feBlend mode="normal" in="SourceGraphic" in2="effect1_backgroundBlur_0_2929" result="shape"/>
</filter>
<clipPath id="clip0_0_2929">
<rect x="0.498573" y="0.994873" width="454" height="293" rx="22" fill="white"/>
</clipPath>
</defs>
</svg>
