<svg width="321" height="381" viewBox="0 0 321 381" fill="none" xmlns="http://www.w3.org/2000/svg">
<rect x="1.46771" y="0.915039" width="319" height="379" rx="11.5" fill="white" stroke="#989EB1"/>
<mask id="mask0_0_2577" style="mask-type:alpha" maskUnits="userSpaceOnUse" x="17" y="22" width="286" height="279">
<rect x="17.9584" y="22.4443" width="284.602" height="278.116" rx="12" fill="#E4E7F1"/>
</mask>
<g mask="url(#mask0_0_2577)">
<path d="M142.602 193.614C153.728 214.3 180.489 259.944 193.993 282.85C198.507 290.508 196.19 300.354 188.737 305.206C180.833 310.35 170.236 307.891 165.405 299.791L112.087 210.397C107.174 201.656 110.642 190.58 119.667 186.201C128.065 182.124 138.181 185.391 142.602 193.614Z" fill="#F2F3F8"/>
<path d="M193.992 282.744L239.635 359.567L211.346 377.409L164.768 298.818C160.064 290.446 163.387 279.839 172.026 275.644C180.071 271.742 189.757 274.869 193.992 282.744Z" fill="#F2F3F8"/>
<path d="M93.31 179.144L77.3184 184.274L61.6139 188.813L35.0002 212.394L76.5223 334.824L162.433 308.618L125.069 184.564L93.31 179.144Z" fill="#F2F3F8"/>
<path d="M91.218 217.569C91.5253 218.577 90.9588 219.644 89.9515 219.951C88.9422 220.259 87.8767 219.69 87.5694 218.682C87.2622 217.675 87.8292 216.61 88.8386 216.302C89.8458 215.995 90.9107 216.562 91.218 217.569Z" fill="#F2F3F8"/>
<path d="M97.8097 239.18C98.1176 240.189 97.5505 241.254 96.5432 241.561C95.5339 241.869 94.469 241.302 94.1611 240.293C93.8538 239.285 94.4209 238.22 95.4302 237.912C96.4375 237.605 97.5024 238.172 97.8097 239.18Z" fill="#F2F3F8"/>
<path d="M104.402 260.791C104.71 261.8 104.142 262.865 103.135 263.172C102.126 263.48 101.061 262.913 100.753 261.904C100.446 260.896 101.013 259.831 102.022 259.523C103.03 259.216 104.094 259.783 104.402 260.791Z" fill="#F2F3F8"/>
<path d="M110.993 282.399C111.301 283.409 110.734 284.474 109.727 284.781C108.717 285.089 107.652 284.522 107.344 283.512C107.037 282.505 107.604 281.44 108.614 281.132C109.621 280.825 110.686 281.392 110.993 282.399Z" fill="#F2F3F8"/>
<path d="M26.7943 228.938C29.1085 252.312 32.3787 305.122 33.96 331.665C34.4872 340.539 41.9073 347.415 50.7969 347.281C60.2266 347.139 67.6468 339.183 67.1363 329.766L61.4822 225.833C60.6797 215.838 51.6204 208.583 41.69 209.986C32.4459 211.291 25.8754 219.648 26.7943 228.938Z" fill="#F2F3F8"/>
<path d="M98.8887 173.277L90.8426 175.731L95.7771 181.649L98.8887 173.277Z" fill="#F2F3F8"/>
<path d="M85.9777 202.724C76.6842 205.559 66.8504 200.322 64.0155 191.028L53.0909 155.214L86.7487 144.947L97.6733 180.762C100.508 190.055 95.2712 199.889 85.9777 202.724Z" fill="#F2F3F8"/>
<path d="M89.4754 201.657L75.0958 190.698C73.0147 188.791 70.5306 187.355 67.8092 186.484L62.7247 184.858C61.648 184.515 60.4544 184.817 59.669 185.633L56.1543 189.285C55.3439 190.128 55.124 191.354 55.5987 192.393L61.338 204.966C61.901 206.207 63.7027 206.229 64.3459 205.005L70.7527 192.801C71.1081 192.121 72.0103 191.922 72.6154 192.389L90.1868 203.989L89.4754 201.657Z" fill="#F2F3F8"/>
<path d="M89.4781 201.664L98.4224 173.97C98.6736 173.204 98.6815 173.157 99.6176 173.448L103.796 174.751C104.762 175.052 105.529 175.977 105.742 177.098L110.266 190.04C110.521 191.377 109.339 192.309 108.291 191.599L98.677 184.336C98.0962 183.941 97.3976 184.232 97.2329 184.932L90.1895 203.996L89.4781 201.664Z" fill="#F2F3F8"/>
<path d="M84.8446 96.6444C81.9742 92.0616 76.6624 85.9792 63.7632 84.1686C42.4536 81.1755 38.2531 102.618 38.2531 102.618C33.0578 103.604 29.4195 106.647 28.4999 112.214C27.6377 117.431 32.4349 125.283 34.0196 128.042L43.8515 145.618L41.982 126.619C41.9185 113.766 45.8216 107.333 45.8216 107.333L62.4516 100.746L90.9503 129.378L88.305 108.098C87.9706 105.398 87.3594 102.73 86.4243 100.175C85.8842 98.6961 85.3391 97.4344 84.8446 96.6444Z" fill="#F2F3F8"/>
<path d="M86.5442 126.203C86.5442 126.203 87.7157 121.892 92.9526 122.241C98.1846 122.589 99.5413 134.631 92.9438 138.229C92.9438 138.229 90.5885 139.549 88.0844 138.426C88.0844 138.426 87.2471 129.48 86.5442 126.203Z" fill="#F2F3F8"/>
<path d="M42.6434 139.455C42.6434 139.455 38.7829 136.754 34.8857 139.95C30.8332 143.279 36.3378 153.908 43.818 153.214C43.818 153.214 46.5089 152.995 47.9606 150.665C47.9606 150.665 43.8891 142.566 42.6434 139.455Z" fill="#F2F3F8"/>
<path d="M37.0474 143.687C37.0474 143.687 40.5761 141.174 45.1328 146.114L37.0474 143.687Z" fill="#F2F3F8"/>
<path d="M42.3609 143.863C42.3609 143.863 38.7799 147.455 42.656 150.03L42.3609 143.863Z" fill="#F2F3F8"/>
<path d="M87.6174 114.057C89.7144 120.925 93.4229 135.504 91.8025 145.322C90.2809 154.539 85.0376 160.851 76.5183 163.73C68.0009 166.608 60.5838 165.247 52.2811 156.418C43.977 147.592 38.6188 129.144 38.6188 129.144C38.6188 129.144 31.1335 104.604 55.3858 97.2067C80.9303 89.4149 87.6174 114.057 87.6174 114.057Z" fill="#F2F3F8"/>
<path d="M73.3048 125.76L76.6467 136.716C76.7212 136.96 76.7458 137.208 76.7261 137.45C76.6467 138.393 75.8009 139.091 74.8545 139.124L72.8175 139.198" fill="#F2F3F8"/>
<path d="M63.0234 129.864C63.4088 131.127 62.6981 132.465 61.4324 132.851C60.1687 133.237 58.8303 132.524 58.4448 131.26C58.0594 129.997 58.7721 128.658 60.0358 128.273C61.3015 127.887 62.6379 128.6 63.0234 129.864Z" fill="#F2F3F8"/>
<path d="M63.6524 123.651L62.4088 119.274L54.3843 121.88C53.3704 122.209 52.5019 122.877 51.9198 123.768L48.4465 129.11L54.9381 126.022L63.6524 123.651Z" fill="#F2F3F8"/>
<path d="M78.124 125.259C78.5094 126.522 79.8459 127.236 81.1116 126.85C82.3753 126.464 83.0881 125.126 82.7026 123.862C82.3172 122.598 80.9787 121.886 79.715 122.271C78.4492 122.657 77.7385 123.995 78.124 125.259Z" fill="#F2F3F8"/>
<path d="M74.9982 120.187L73.6514 115.844L80.0379 113.965C80.8442 113.728 81.7241 113.849 82.5299 114.31L87.3538 117.065L81.7078 117.755L74.9982 120.187Z" fill="#F2F3F8"/>
<path d="M74.7407 143.649C73.9239 144.479 73.1808 145.033 72.3329 145.607C71.5003 146.159 70.6187 146.63 69.7049 147.018C67.8843 147.809 65.8788 148.176 63.9401 148.092C63.5394 148.076 63.2291 147.737 63.2468 147.335C63.2613 146.982 63.5263 146.699 63.8648 146.649L63.8904 146.645C65.5841 146.393 67.1721 145.773 68.5496 144.835C69.2426 144.372 69.89 143.848 70.481 143.269C71.0553 142.709 71.651 142.023 72.0132 141.467C72.5383 140.651 73.6252 140.415 74.4394 140.941C75.2558 141.466 75.491 142.551 74.966 143.367C74.9022 143.464 74.8181 143.568 74.7407 143.649Z" fill="#F2F3F8"/>
<path d="M79.2217 139.426C79.7265 139.688 80.4904 139.947 81.1679 140.111C81.8715 140.282 82.5917 140.382 83.3159 140.408C84.7679 140.472 86.2255 140.161 87.5628 139.478L87.586 139.466C87.9209 139.295 88.3307 139.428 88.4997 139.763C88.649 140.056 88.5667 140.406 88.3194 140.601C86.9595 141.692 85.2612 142.44 83.4922 142.714C82.6075 142.862 81.7097 142.916 80.8114 142.88C79.892 142.834 79.0683 142.751 78.051 142.479C77.1719 142.251 76.6459 141.351 76.8758 140.471C77.1063 139.593 78.0041 139.066 78.8845 139.298C78.9981 139.328 79.1194 139.375 79.2217 139.426Z" fill="#F2F3F8"/>
<path d="M75.3868 150.794C75.3868 150.794 77.9611 150.921 81.0276 149.073L75.3868 150.794Z" fill="#F2F3F8"/>
<path d="M229.643 167.064C240.768 187.75 267.53 233.394 281.034 256.3C285.547 263.958 283.23 273.804 275.777 278.656C267.874 283.8 257.277 281.341 252.446 273.241L199.127 183.847C194.214 175.106 197.682 164.03 206.707 159.651C215.106 155.574 225.222 158.841 229.643 167.064Z" fill="#142251"/>
<path d="M281.033 256.194L326.675 333.017L298.387 350.859L251.809 272.268C247.104 263.896 250.428 253.289 259.067 249.094C267.112 245.192 276.798 248.319 281.033 256.194Z" fill="#142251"/>
<path d="M180.351 152.594L164.359 157.724L148.655 162.263L122.041 185.844L163.563 308.274L249.474 282.068L212.109 158.014L180.351 152.594Z" fill="#142251"/>
<path d="M178.259 191.019C178.566 192.027 177.999 193.094 176.992 193.401C175.983 193.709 174.917 193.14 174.61 192.132C174.303 191.125 174.87 190.06 175.879 189.752C176.887 189.445 177.951 190.012 178.259 191.019Z" fill="#142251"/>
<path d="M184.85 212.63C185.158 213.639 184.591 214.704 183.584 215.011C182.575 215.319 181.51 214.752 181.202 213.742C180.895 212.735 181.462 211.67 182.471 211.362C183.478 211.055 184.543 211.622 184.85 212.63Z" fill="#142251"/>
<path d="M191.442 234.241C191.75 235.25 191.183 236.315 190.176 236.622C189.167 236.93 188.102 236.363 187.794 235.353C187.487 234.346 188.054 233.281 189.063 232.973C190.07 232.666 191.135 233.233 191.442 234.241Z" fill="#142251"/>
<path d="M198.034 255.849C198.342 256.859 197.775 257.923 196.767 258.231C195.758 258.539 194.693 257.971 194.385 256.962C194.078 255.955 194.645 254.89 195.654 254.582C196.662 254.275 197.726 254.842 198.034 255.849Z" fill="#142251"/>
<path d="M204.626 277.46C204.934 278.47 204.366 279.535 203.359 279.842C202.35 280.15 201.285 279.583 200.977 278.573C200.67 277.566 201.237 276.501 202.246 276.193C203.254 275.886 204.318 276.453 204.626 277.46Z" fill="#142251"/>
<path d="M113.835 202.388C116.149 225.762 119.419 278.572 121.001 305.115C121.528 313.989 128.948 320.865 137.838 320.731C147.267 320.589 154.688 312.633 154.177 303.216L148.523 199.283C147.72 189.288 138.661 182.033 128.731 183.436C119.487 184.741 112.916 193.098 113.835 202.388Z" fill="#142251"/>
<path d="M120.94 305.027L125.946 394.245L159.376 393.261L154.16 302.053C153.391 292.481 144.715 285.534 135.204 286.876C126.351 288.129 120.059 296.129 120.94 305.027Z" fill="#142251"/>
<path d="M267.528 327.919L177.022 355.526L163.563 308.274L249.152 282.166L267.528 327.919Z" fill="#142251"/>
<path d="M185.929 146.727L177.883 149.181L182.818 155.099L185.929 146.727Z" fill="#142251"/>
<path d="M173.018 176.174C163.725 179.009 153.891 173.772 151.056 164.478L140.132 128.664L173.789 118.397L184.714 154.212C187.549 163.505 182.312 173.339 173.018 176.174Z" fill="#142251"/>
<path d="M176.516 175.107L162.136 164.148C160.055 162.24 157.571 160.805 154.85 159.934L149.765 158.308C148.689 157.965 147.495 158.267 146.71 159.082L143.195 162.735C142.385 163.578 142.165 164.804 142.639 165.842L148.379 178.416C148.942 179.657 150.743 179.679 151.387 178.455L157.793 166.251C158.149 165.571 159.051 165.372 159.656 165.839L177.227 177.439L176.516 175.107Z" fill="#142251"/>
<path d="M176.519 175.114L185.463 147.42C185.714 146.654 185.722 146.607 186.658 146.898L190.837 148.201C191.803 148.502 192.57 149.427 192.783 150.548L197.307 163.49C197.561 164.827 196.38 165.759 195.331 165.049L185.718 157.786C185.137 157.391 184.438 157.682 184.274 158.382L177.23 177.446L176.519 175.114Z" fill="#142251"/>
<path d="M171.885 70.0943C169.015 65.5115 163.703 59.4292 150.804 57.6185C129.494 54.6254 125.294 76.0675 125.294 76.0675C120.099 77.0539 116.46 80.0966 115.541 85.6642C114.678 90.8806 119.476 98.7325 121.06 101.492L130.892 119.068L129.023 100.069C128.959 87.2163 132.862 80.7831 132.862 80.7831L149.492 74.1957L177.991 102.828L175.346 81.5481C175.011 78.8475 174.4 76.1802 173.465 73.6251C172.925 72.1461 172.38 70.8844 171.885 70.0943Z" fill="#142251"/>
<path d="M173.585 99.653C173.585 99.653 174.756 95.3422 179.993 95.6908C185.225 96.0394 186.582 108.081 179.985 111.679C179.985 111.679 177.629 112.999 175.125 111.876C175.125 111.876 174.288 102.93 173.585 99.653Z" fill="#142251"/>
<path d="M129.684 112.904C129.684 112.904 125.824 110.204 121.926 113.4C117.874 116.729 123.378 127.358 130.859 126.664C130.859 126.664 133.55 126.445 135.001 124.115C135.001 124.115 130.93 116.016 129.684 112.904Z" fill="#142251"/>
<path d="M124.088 117.137C124.088 117.137 127.617 114.624 132.173 119.564L124.088 117.137Z" fill="#142251"/>
<path d="M129.402 117.313C129.402 117.313 125.821 120.905 129.697 123.48L129.402 117.313Z" fill="#142251"/>
<path d="M174.658 87.5074C176.755 94.3747 180.464 108.953 178.843 118.772C177.322 127.989 172.078 134.301 163.559 137.18C155.042 140.058 147.625 138.697 139.322 129.868C131.018 121.042 125.659 102.594 125.659 102.594C125.659 102.594 118.174 78.0544 142.427 70.6567C167.971 62.8648 174.658 87.5074 174.658 87.5074Z" fill="#142251"/>
<path d="M160.345 99.2096L163.687 110.166C163.762 110.41 163.786 110.658 163.767 110.9C163.687 111.843 162.842 112.541 161.895 112.574L159.858 112.648" fill="#142251"/>
<path d="M150.064 103.314C150.45 104.577 149.739 105.915 148.473 106.301C147.209 106.687 145.871 105.974 145.486 104.71C145.1 103.447 145.813 102.108 147.077 101.723C148.342 101.337 149.679 102.05 150.064 103.314Z" fill="#142251"/>
<path d="M150.693 97.1005L149.449 92.7244L141.425 95.33C140.411 95.6593 139.543 96.3268 138.96 97.2184L135.487 102.56L141.979 99.4717L150.693 97.1005Z" fill="#142251"/>
<path d="M165.165 98.7087C165.55 99.9724 166.887 100.686 168.152 100.3C169.416 99.9143 170.129 98.5758 169.743 97.3121C169.358 96.0484 168.019 95.3356 166.756 95.7211C165.49 96.1072 164.779 97.445 165.165 98.7087Z" fill="#142251"/>
<path d="M162.039 93.6366L160.692 89.2942L167.079 87.415C167.885 87.178 168.765 87.2989 169.571 87.7604L174.395 90.515L168.749 91.2052L162.039 93.6366Z" fill="#142251"/>
<path d="M161.781 117.099C160.965 117.929 160.222 118.483 159.374 119.057C158.541 119.609 157.659 120.08 156.746 120.468C154.925 121.259 152.92 121.626 150.981 121.542C150.58 121.526 150.27 121.187 150.288 120.785C150.302 120.432 150.567 120.149 150.905 120.099L150.931 120.095C152.625 119.843 154.213 119.223 155.59 118.285C156.283 117.822 156.931 117.298 157.522 116.719C158.096 116.159 158.692 115.473 159.054 114.917C159.579 114.101 160.666 113.865 161.48 114.391C162.296 114.916 162.532 116.001 162.007 116.817C161.943 116.914 161.859 117.018 161.781 117.099Z" fill="#142251"/>
<path d="M166.262 112.876C166.767 113.138 167.531 113.397 168.209 113.561C168.912 113.732 169.632 113.832 170.357 113.858C171.809 113.922 173.266 113.611 174.604 112.928L174.627 112.916C174.962 112.745 175.371 112.878 175.54 113.213C175.69 113.506 175.607 113.856 175.36 114.051C174 115.142 172.302 115.889 170.533 116.164C169.648 116.312 168.75 116.366 167.852 116.33C166.933 116.284 166.109 116.201 165.092 115.929C164.213 115.701 163.687 114.801 163.916 113.921C164.147 113.043 165.045 112.516 165.925 112.748C166.039 112.777 166.16 112.825 166.262 112.876Z" fill="#142251"/>
<path d="M162.427 124.244C162.427 124.244 165.002 124.371 168.068 122.523L162.427 124.244Z" fill="#142251"/>
<path d="M309.032 142.847C320.157 163.534 346.919 209.178 360.423 232.084C364.936 239.742 362.619 249.588 355.166 254.44C347.262 259.584 336.665 257.125 331.835 249.025L278.516 159.631C273.603 150.889 277.071 139.814 286.096 135.435C294.495 131.358 304.611 134.625 309.032 142.847Z" fill="#E4E7F1"/>
<path d="M259.74 128.378L243.748 133.507L228.043 138.046L201.43 161.628L242.952 284.058L328.863 257.852L291.498 133.798L259.74 128.378Z" fill="#E4E7F1"/>
<path d="M257.648 166.803C257.955 167.811 257.388 168.878 256.381 169.185C255.372 169.493 254.306 168.924 253.999 167.916C253.692 166.909 254.259 165.844 255.268 165.536C256.275 165.229 257.34 165.796 257.648 166.803Z" fill="#E4E7F1"/>
<path d="M264.239 188.413C264.547 189.423 263.98 190.488 262.973 190.795C261.963 191.103 260.899 190.536 260.591 189.526C260.283 188.519 260.85 187.454 261.86 187.146C262.867 186.839 263.932 187.406 264.239 188.413Z" fill="#E4E7F1"/>
<path d="M270.831 210.024C271.139 211.034 270.572 212.099 269.565 212.406C268.555 212.714 267.491 212.147 267.183 211.137C266.875 210.13 267.443 209.065 268.452 208.757C269.459 208.45 270.524 209.017 270.831 210.024Z" fill="#E4E7F1"/>
<path d="M277.423 231.633C277.73 232.642 277.163 233.707 276.156 234.015C275.147 234.323 274.082 233.755 273.774 232.746C273.467 231.739 274.034 230.674 275.043 230.366C276.05 230.059 277.115 230.626 277.423 231.633Z" fill="#E4E7F1"/>
<path d="M284.015 253.244C284.322 254.254 283.755 255.318 282.748 255.626C281.739 255.934 280.674 255.367 280.366 254.357C280.059 253.35 280.626 252.285 281.635 251.977C282.642 251.67 283.707 252.237 284.015 253.244Z" fill="#E4E7F1"/>
<path d="M193.224 178.172C195.538 201.546 198.808 254.356 200.39 280.899C200.917 289.773 208.337 296.649 217.227 296.515C226.656 296.373 234.076 288.417 233.566 279L227.912 175.067C227.109 165.071 218.05 157.817 208.12 159.22C198.875 160.525 192.305 168.882 193.224 178.172Z" fill="#E4E7F1"/>
<path d="M200.329 280.81L205.334 370.029L238.765 369.045L233.549 277.837C232.78 268.265 224.104 261.318 214.593 262.66C205.74 263.913 199.448 271.913 200.329 280.81Z" fill="#E4E7F1"/>
<path d="M346.917 303.703L256.411 331.31L242.952 284.057L328.541 257.95L346.917 303.703Z" fill="#E4E7F1"/>
<path d="M256.031 330.813L286.375 440.175C289.036 450.079 299.376 455.809 309.187 452.817C318.067 450.108 323.469 441.129 321.703 432.012L299.682 320.729C297.15 307.667 283.864 299.673 271.138 303.555C259.577 307.081 252.893 319.14 256.031 330.813Z" fill="#E4E7F1"/>
<path d="M346.591 303.189L384.4 410.274C387.72 419.978 382.339 430.503 372.53 433.495C363.648 436.204 354.154 431.769 350.532 423.218L304.743 319.185C299.554 306.934 306.116 292.885 318.843 289.003C330.403 285.477 342.68 291.752 346.591 303.189Z" fill="#E4E7F1"/>
<path d="M265.318 122.511L257.272 124.965L262.207 130.883L265.318 122.511Z" fill="#E4E7F1"/>
<path d="M252.407 151.958C243.114 154.793 233.28 149.556 230.445 140.262L219.521 104.448L253.178 94.1809L264.103 129.996C266.938 139.289 261.701 149.123 252.407 151.958Z" fill="#E4E7F1"/>
<path d="M255.905 150.891L241.525 139.932C239.444 138.024 236.96 136.589 234.239 135.718L229.154 134.092C228.078 133.749 226.884 134.051 226.099 134.866L222.584 138.519C221.773 139.362 221.554 140.588 222.028 141.626L227.768 154.2C228.331 155.441 230.132 155.463 230.775 154.239L237.182 142.035C237.538 141.355 238.44 141.156 239.045 141.623L256.616 153.223L255.905 150.891Z" fill="#E4E7F1"/>
<path d="M255.908 150.898L264.852 123.204C265.103 122.438 265.111 122.391 266.047 122.682L270.226 123.985C271.192 124.286 271.959 125.211 272.172 126.332L276.696 139.274C276.95 140.611 275.769 141.543 274.72 140.833L265.107 133.569C264.526 133.175 263.827 133.466 263.662 134.166L256.619 153.23L255.908 150.898Z" fill="#E4E7F1"/>
<path d="M251.274 45.8783C248.404 41.2955 243.092 35.2131 230.193 33.4025C208.883 30.4093 204.683 51.8514 204.683 51.8514C199.487 52.8378 195.849 55.8805 194.929 61.4481C194.067 66.6645 198.865 74.5165 200.449 77.2761L210.281 94.8516L208.412 75.8527C208.348 63.0002 212.251 56.567 212.251 56.567L228.881 49.9796L257.38 78.6121L254.735 57.332C254.4 54.6315 253.789 51.9642 252.854 49.409C252.314 47.93 251.769 46.6683 251.274 45.8783Z" fill="#E4E7F1"/>
<path d="M252.974 75.4369C252.974 75.4369 254.145 71.1262 259.382 71.4747C264.614 71.8234 265.971 83.8647 259.373 87.4624C259.373 87.4624 257.018 88.7834 254.514 87.6601C254.514 87.6601 253.677 78.714 252.974 75.4369Z" fill="#E4E7F1"/>
<path d="M209.073 88.6884C209.073 88.6884 205.212 85.9881 201.315 89.1842C197.263 92.5131 202.767 103.142 210.248 102.448C210.248 102.448 212.939 102.229 214.39 99.8993C214.39 99.8993 210.319 91.7999 209.073 88.6884Z" fill="#E4E7F1"/>
<path d="M203.477 92.9207C203.477 92.9207 207.006 90.4082 211.562 95.348L203.477 92.9207Z" fill="#E4E7F1"/>
<path d="M208.79 93.0969C208.79 93.0969 205.209 96.6889 209.086 99.2638L208.79 93.0969Z" fill="#E4E7F1"/>
<path d="M254.047 63.2913C256.144 70.1586 259.852 84.7374 258.232 94.5558C256.71 103.772 251.467 110.085 242.948 112.964C234.43 115.842 227.013 114.481 218.711 105.652C210.407 96.8261 205.048 78.3775 205.048 78.3775C205.048 78.3775 197.563 53.8383 221.815 46.4406C247.36 38.6488 254.047 63.2913 254.047 63.2913Z" fill="#E4E7F1"/>
<path d="M239.734 74.9935L243.076 85.9496C243.151 86.1938 243.175 86.4421 243.156 86.6838C243.076 87.6267 242.231 88.3251 241.284 88.358L239.247 88.4322" fill="#E4E7F1"/>
<path d="M229.453 79.0977C229.838 80.3614 229.128 81.6992 227.862 82.0853C226.598 82.4707 225.26 81.758 224.874 80.4943C224.489 79.2306 225.202 77.8921 226.465 77.5067C227.731 77.1206 229.067 77.834 229.453 79.0977Z" fill="#E4E7F1"/>
<path d="M230.082 72.8845L228.838 68.5084L220.814 71.114C219.8 71.4433 218.932 72.1108 218.349 73.0023L214.876 78.3435L221.368 75.2557L230.082 72.8845Z" fill="#E4E7F1"/>
<path d="M244.554 74.4927C244.939 75.7564 246.275 76.4697 247.541 76.0837C248.805 75.6982 249.518 74.3597 249.132 73.096C248.747 71.8323 247.408 71.1196 246.145 71.5051C244.879 71.8911 244.168 73.229 244.554 74.4927Z" fill="#E4E7F1"/>
<path d="M241.428 69.4206L240.081 65.0781L246.467 63.199C247.274 62.9619 248.154 63.0828 248.959 63.5443L253.783 66.299L248.137 66.9891L241.428 69.4206Z" fill="#E4E7F1"/>
<path d="M241.17 92.8832C240.353 93.7129 239.61 94.2665 238.762 94.841C237.93 95.393 237.048 95.8644 236.134 96.2521C234.314 97.0432 232.308 97.4103 230.37 97.3255C229.969 97.3098 229.659 96.9707 229.676 96.5694C229.691 96.2158 229.956 95.9325 230.294 95.8826L230.32 95.8793C232.014 95.6273 233.602 95.0073 234.979 94.0688C235.672 93.6061 236.32 93.0817 236.911 92.5033C237.485 91.9433 238.081 91.2566 238.443 90.7013C238.968 89.885 240.055 89.6491 240.869 90.1748C241.685 90.6998 241.921 91.7847 241.396 92.601C241.332 92.6983 241.248 92.8018 241.17 92.8832Z" fill="#E4E7F1"/>
<path d="M245.651 88.66C246.156 88.922 246.92 89.1805 247.597 89.3453C248.301 89.5155 249.021 89.6161 249.745 89.6421C251.197 89.7063 252.655 89.3952 253.992 88.7114L254.016 88.6999C254.35 88.5288 254.76 88.6619 254.929 88.9973C255.079 89.2899 254.996 89.6397 254.749 89.8353C253.389 90.9263 251.691 91.6734 249.922 91.9483C249.037 92.0958 248.139 92.1495 247.241 92.1143C246.322 92.0678 245.498 91.9854 244.481 91.7129C243.601 91.4851 243.075 90.5846 243.305 89.7048C243.536 88.8271 244.434 88.2996 245.314 88.5316C245.428 88.5614 245.549 88.6089 245.651 88.66Z" fill="#E4E7F1"/>
<path d="M241.816 100.028C241.816 100.028 244.391 100.155 247.457 98.3072L241.816 100.028Z" fill="#E4E7F1"/>
<rect x="18.4584" y="22.9441" width="283.602" height="277.116" rx="11.5" stroke="#989EB1"/>
</g>
</svg>
