<svg width="405" height="224" viewBox="0 0 405 224" fill="none" xmlns="http://www.w3.org/2000/svg">
<rect width="405" height="224" rx="20" fill="#F3F6F9"/>
<path d="M311.604 48.9457L311.604 175.73C311.604 178.462 309.389 180.676 306.656 180.676L98.946 180.676C96.2144 180.676 93.9999 178.462 93.9999 175.73L93.9999 48.9457C93.9999 46.2142 96.2144 43.9999 98.946 43.9999L306.656 43.9999C309.389 43.9999 311.604 46.2142 311.604 48.9457" fill="#989EB1"/>
<path d="M271.379 173.619C282.425 173.619 291.379 164.665 291.379 153.619L291.379 71.3371C291.379 60.2914 282.425 51.3371 271.379 51.3371L125.544 51.3371C114.499 51.3371 105.544 60.2914 105.544 71.3371L105.544 153.619C105.544 164.665 114.499 173.619 125.544 173.619L271.379 173.619Z" fill="#D5ECF1"/>
<path d="M302 51C303.105 51 304 51.8954 304 53L304 64C304 65.1046 303.105 66 302 66V66C300.895 66 300 65.1046 300 64L300 53C300 51.8954 300.895 51 302 51V51Z" fill="white"/>
<path d="M302 69C303.105 69 304 69.8954 304 71L304 72C304 73.1046 303.105 74 302 74V74C300.895 74 300 73.1046 300 72L300 71C300 69.8954 300.895 69 302 69V69Z" fill="white"/>
<path d="M278.167 171.475C277.796 172.521 278.571 173.619 279.68 173.619L290.833 173.619C291.134 173.619 291.379 173.374 291.379 173.073V173.073C291.379 172.811 291.193 172.585 290.935 172.536L279.982 170.436C279.204 170.287 278.433 170.728 278.167 171.475V171.475Z" fill="#EFF0F3"/>
<path d="M268.158 61.875C270.661 62.3546 273.152 60.9904 274.097 58.6231V58.6231C275.489 55.1318 272.917 51.3376 269.159 51.3376L225.648 51.3376C225.185 51.3376 224.765 51.6071 224.572 52.0276V52.0276C224.25 52.7264 224.67 53.5413 225.425 53.686L268.158 61.875Z" fill="#EFF0F3"/>
<path d="M111.253 138.102C108.291 137.534 105.544 139.804 105.544 142.821V142.821C105.544 147.906 112.413 149.506 114.659 144.943V144.943C116.06 142.097 114.368 138.699 111.253 138.102V138.102Z" fill="#EFF0F3"/>
<path d="M291.379 66.3251L291.379 55.3587C291.379 53.138 289.579 51.3377 287.358 51.3377V51.3377C285.7 51.3377 284.212 52.3555 283.611 53.9007L282.809 55.9617C281.166 60.1848 283.754 64.864 288.204 65.7168L291.379 66.3251" fill="#EFF0F3"/>
<path d="M179.036 151.092V151.092C174.197 161.619 181.888 173.619 193.474 173.619L210.38 173.619C214.218 173.619 217.54 170.953 218.372 167.206V167.206C219.371 162.702 216.452 158.262 211.921 157.394L179.036 151.092" fill="#EFF0F3"/>
<path d="M234.3 161.683C231.115 161.072 228.018 163.094 227.296 166.256V166.256C226.435 170.026 229.3 173.619 233.167 173.619L266.627 173.619C267.84 173.619 268.92 172.849 269.316 171.702V171.702C269.881 170.064 268.863 168.306 267.162 167.98L234.3 161.683Z" fill="#EFF0F3"/>
<path d="M138.836 143.388C131.814 142.042 124.799 145.755 121.964 152.319V152.319C117.615 162.388 124.998 173.619 135.966 173.619L148.419 173.619C153.905 173.619 158.89 170.43 161.191 165.45V165.45C165.026 157.149 160.048 147.453 151.067 145.732L138.836 143.388Z" fill="#EFF0F3"/>
<path d="M181.494 121.505C186.485 110.699 180.355 98.0274 168.785 95.234L130.028 85.8765C117.552 82.8645 105.546 92.3174 105.546 105.151V105.151C105.546 114.663 112.3 122.835 121.642 124.626L160.801 132.13C169.32 133.762 177.856 129.38 181.494 121.505V121.505Z" fill="#EFF0F3"/>
<path d="M210.566 58.5719L174.682 51.6949C173.441 51.4572 172.181 51.3375 170.917 51.3375L113.485 51.3375C109.1 51.3375 105.545 54.8924 105.545 59.2776V59.2776C105.545 62.9044 108.002 66.0703 111.516 66.9696L180.491 84.6251C189.837 87.0176 199.56 82.3963 203.606 73.6376L210.566 58.5719" fill="#EFF0F3"/>
<path d="M185.57 136.877L276.088 154.223C284.022 155.744 291.379 149.663 291.379 141.584V141.584C291.379 135.954 287.719 130.977 282.345 129.3L280.367 128.682C270.743 125.678 266.412 114.504 271.497 105.798L278.7 93.4653C279.913 91.3883 282.227 90.2111 284.62 90.4535V90.4535C288.237 90.8201 291.379 87.9808 291.379 84.3454L291.379 81.3621C291.379 77.1235 288.369 73.482 284.206 72.6843L236.064 63.4585C227.025 61.7264 217.971 66.386 214.128 74.7481L185.57 136.877" fill="#EFF0F3"/>
<path d="M119.73 139.726L126.816 141.084L162.902 148C166.33 148.657 169.764 146.894 171.227 143.726V143.726C173.298 139.244 170.61 134.01 165.762 133.08L114.569 123.27C109.887 122.373 105.545 125.962 105.545 130.73V130.73C105.545 134.373 108.132 137.504 111.71 138.189L117.444 139.288L119.73 139.726" fill="white"/>
<path d="M117.443 139.288C117.443 139.288 117.443 139.288 117.443 139.288L105.544 137.008L117.443 139.288C117.443 139.288 117.443 139.288 117.443 139.288V139.288Z" fill="white"/>
<path d="M179.036 151.092L218.138 158.585C219.285 158.805 220.398 158.073 220.651 156.933V156.933C220.994 155.388 222.829 154.725 224.08 155.694L228.495 159.113C228.72 159.287 228.823 159.575 228.76 159.852V159.852C228.668 160.255 228.928 160.653 229.333 160.731L269.455 168.42C269.99 168.522 270.519 168.216 270.697 167.701V167.701C270.911 167.08 271.619 166.786 272.21 167.072L277.842 169.797C278.364 170.049 278.917 170.233 279.487 170.342L285.318 171.46C288.463 172.063 291.379 169.653 291.379 166.451V166.451C291.379 164.001 289.637 161.897 287.23 161.44L193.478 143.643C187.524 142.513 181.567 145.586 179.036 151.092V151.092" fill="white"/>
<path d="M183.344 141.719L288.42 161.666C289.956 161.957 291.379 160.779 291.379 159.215V159.215C291.379 158.019 290.529 156.991 289.354 156.766L190.804 137.88C187.73 137.291 184.651 138.875 183.344 141.719V141.719" fill="white"/>
<path d="M272.037 63.7831V63.7831C272.261 63.2221 271.918 62.5959 271.325 62.4822L224.379 53.4859C224.12 53.4364 223.861 53.5696 223.752 53.8087V53.8087C223.597 54.146 223.799 54.5393 224.164 54.6092L272.037 63.7831" fill="white"/>
<path d="M279.478 64.5219C279.349 64.8548 279.553 65.2235 279.904 65.2907L290.699 67.3594C291.052 67.427 291.379 67.1568 291.379 66.7978V66.7978C291.379 66.5235 291.184 66.2878 290.915 66.2362L280.119 64.1676C279.848 64.1157 279.578 64.2647 279.478 64.5219V64.5219Z" fill="white"/>
<path d="M213.848 51.4674L213.525 51.4055C213.289 51.3603 213.05 51.3375 212.81 51.3375L208.596 51.3375C204.475 51.3375 203.909 57.2963 207.956 58.0718V58.0718C209.489 58.3656 211.025 57.577 211.68 56.1599L213.848 51.4674" fill="white"/>
<path d="M279.014 65.7153L272.359 65.5443C271.868 65.5317 271.539 65.0335 271.721 64.577V64.577C271.886 64.165 271.634 63.7055 271.198 63.622L225.93 54.9474C224.472 54.668 223.012 55.4196 222.392 56.7683V56.7683C221.518 58.671 222.659 60.8896 224.716 61.2837L287.546 73.3242C289.535 73.7053 291.379 72.181 291.379 70.1559V70.1559C291.379 68.6084 290.28 67.2789 288.76 66.9877L279.813 65.2733C279.475 65.2085 279.139 65.3944 279.014 65.7153V65.7153" fill="white"/>
<path d="M172.651 149.868C170.352 149.427 168.048 150.61 167.066 152.735L160.769 166.367C159.205 169.753 161.678 173.619 165.407 173.619V173.619C167.403 173.619 169.216 172.457 170.05 170.644L176.321 157C177.703 153.995 175.899 150.49 172.651 149.868V149.868Z" fill="white"/>
<path d="M217.26 59.8539V59.8539C213.327 59.1005 209.387 61.1237 207.708 64.7588L197.091 87.739C196.847 88.2672 197.142 88.8873 197.705 89.0316V89.0316C198.126 89.1393 198.416 89.5235 198.405 89.9576L198.198 98.0123C198.141 100.224 196.059 101.819 193.909 101.3V101.3C192.297 100.911 190.634 101.715 189.939 103.22L177.261 130.666C176.264 132.822 177.558 135.341 179.891 135.788V135.788C181.551 136.107 183.214 135.244 183.91 133.703L217.26 59.8539" fill="white"/>
<path d="M213.888 51.3808C213.868 51.4248 213.894 51.476 213.942 51.4851L223.194 53.2583C223.632 53.3423 224.071 53.1165 224.257 52.7112V52.7112C224.552 52.0692 224.083 51.3374 223.377 51.3374L213.956 51.3374C213.927 51.3374 213.9 51.3544 213.888 51.3808V51.3808Z" fill="white"/>
<path d="M182.724 136.331V136.331C184.396 136.652 186.07 135.79 186.781 134.243L219.777 62.4599C220.233 61.4674 219.638 60.3101 218.565 60.1043V60.1043C217.8 59.9576 217.035 60.3548 216.714 61.0644L182.724 136.331" fill="white"/>
<path d="M182.723 136.331L181.134 136.027C177.707 135.37 174.273 137.133 172.81 140.301L171.463 143.215C170.077 146.216 171.916 149.728 175.162 150.35V150.35C177.423 150.783 179.711 149.622 180.673 147.53L182.744 143.024C183.049 142.361 182.65 141.587 181.933 141.451V141.451C181.218 141.316 180.819 140.548 181.118 139.885L182.723 136.331" fill="white"/>
<path d="M181.261 139.571C180.889 140.393 181.385 141.347 182.272 141.515V141.515C182.902 141.635 183.532 141.31 183.8 140.727L184.822 138.504C185.203 137.676 184.706 136.711 183.811 136.54V136.54C183.173 136.417 182.535 136.749 182.268 137.34L181.261 139.571Z" fill="white"/>
<path d="M217.262 59.8544L219.265 55.4185C219.691 54.4745 220.709 53.9463 221.727 54.1414L223.009 54.3874C223.268 54.437 223.527 54.3037 223.637 54.0646V54.0646C223.792 53.7274 223.589 53.3341 223.225 53.2642L216.767 52.0265C215.053 51.6981 213.336 52.5796 212.604 54.1635V54.1635C211.569 56.4042 212.913 59.0214 215.337 59.4858L217.262 59.8544" fill="white"/>
<path d="M217.259 59.8545L218.189 60.0329C219.647 60.3126 221.108 59.561 221.728 58.212L222.539 56.4485C223.001 55.4431 222.398 54.2706 221.311 54.0622V54.0622C220.536 53.9136 219.761 54.3159 219.436 55.0349L217.259 59.8545" fill="white"/>
<path d="M279.651 64.0778L282.723 56.1809C283.63 53.8507 281.911 51.3376 279.41 51.3376V51.3376C277.956 51.3376 276.648 52.2241 276.109 53.5754L275.178 55.9094C273.773 59.4326 275.925 63.3637 279.651 64.0778V64.0778" fill="white"/>
<path d="M278.761 65.0718C279.032 65.1238 279.302 64.9747 279.402 64.7175V64.7175C279.531 64.3847 279.327 64.0159 278.976 63.9487L272.933 62.7902C272.664 62.7386 272.396 62.8852 272.294 63.1398V63.1398C272.161 63.4734 272.365 63.8458 272.718 63.9134L278.761 65.0718Z" fill="white"/>
<path d="M271.347 65.5182L278.795 65.7096C278.927 65.713 279.047 65.6334 279.094 65.5107V65.5107C279.165 65.3289 279.054 65.1275 278.862 65.0908L273.874 64.1345C272.809 63.9304 271.749 64.5109 271.347 65.5182V65.5182" fill="white"/>
<path d="M119.73 139.726V139.726C118.38 139.467 117.022 140.143 116.415 141.377L106.393 161.732C105.835 162.865 105.545 164.111 105.545 165.374L105.545 169.263C105.545 171.669 107.495 173.619 109.901 173.619V173.619C111.639 173.619 113.211 172.586 113.9 170.99L123.956 147.708C125.424 144.308 123.367 140.423 119.73 139.726V139.726" fill="white"/>
<path d="M117.445 139.288C117.445 139.288 117.446 139.289 117.446 139.289L119.732 139.727L117.446 139.288C117.446 139.288 117.445 139.288 117.445 139.288V139.288Z" fill="white"/>
<path d="M272.379 168.979C271.236 168.76 270.105 169.415 269.726 170.515V170.515C269.202 172.035 270.331 173.619 271.939 173.619L276.027 173.619C276.853 173.619 277.59 173.099 277.867 172.321V172.321C278.268 171.193 277.569 169.974 276.394 169.749L272.379 168.979Z" fill="white"/>
<path d="M272.07 167.004C271.553 166.754 270.935 167.011 270.748 167.554V167.554C270.558 168.105 270.9 168.696 271.473 168.806V168.806C272.572 169.017 273.078 167.492 272.07 167.004V167.004Z" fill="white"/>
<path d="M220.198 158.98L218.094 168.46C217.507 171.108 219.522 173.619 222.234 173.619V173.619C224.213 173.619 225.928 172.251 226.369 170.322L226.91 167.951C227.829 163.928 225.228 159.944 221.175 159.167L220.198 158.98" fill="white"/>
<path d="M228.865 159.398L224.022 155.648C222.798 154.7 221.005 155.348 220.67 156.859V156.859C220.412 158.02 221.164 159.165 222.333 159.389L227.393 160.359C228.063 160.487 228.713 160.063 228.865 159.398V159.398" fill="white"/>
<path d="M193.364 95.8081C195.06 92.1383 193.012 87.8299 189.095 86.8274L114.279 67.6765C109.853 66.5436 105.545 69.8871 105.545 74.456V74.456C105.545 77.6883 107.759 80.5 110.901 81.2586L185.973 99.3837C188.974 100.108 192.069 98.6111 193.364 95.8081V95.8081Z" fill="white"/>
<path d="M198.426 89.2161V89.2161C197.382 88.9487 196.295 89.4649 195.843 90.4434L192.625 97.4102C191.855 99.0772 192.8 101.032 194.585 101.463V101.463C196.388 101.899 198.134 100.561 198.181 98.7069L198.426 89.2161" fill="white"/>
<path d="M261.562 122.811L267.881 124.783C279.538 128.423 291.381 119.713 291.381 107.501L291.381 97.4138C291.381 93.8499 288.683 90.8647 285.137 90.5054V90.5054C282.431 90.2311 279.813 91.5626 278.441 93.9116L261.562 122.811" fill="#EFF0F3"/>
<path d="M189 114.5L183.43 127.266C179.675 135.871 170.439 140.706 161.228 138.888L103.5 127.5" stroke="#989EB1" stroke-width="2"/>
<path d="M199 101.382V101.382C198.914 111.661 179.915 111.505 180 101.226V101.226C180.043 96.0879 184.33 91.9573 189.577 92.0003C194.824 92.0435 199.042 96.2436 199 101.382" fill="#142251"/>
</svg>
