<svg width="405" height="224" viewBox="0 0 405 224" fill="none" xmlns="http://www.w3.org/2000/svg">
<rect width="405" height="224" rx="20" fill="#F3F6F9"/>
<path d="M98 107C98 107.552 97.5523 108 97 108H90.0891C90.0707 108 90.0528 107.994 90.0378 107.984V107.984C90.0141 107.967 90 107.94 90 107.911V106.089C90 106.06 90.0142 106.033 90.0379 106.016V106.016C90.0529 106.006 90.0706 106 90.0888 106H97C97.5523 106 98 106.448 98 107V107Z" fill="#142251"/>
<path d="M100 112C100 112.552 99.5523 113 99 113H94.0756C94.0563 113 94.0378 112.993 94.0238 112.979V112.979C94.0086 112.965 94 112.945 94 112.924V111.075C94 111.054 94.0087 111.034 94.024 111.02V111.02C94.0379 111.007 94.0562 111 94.0752 111H99C99.5523 111 100 111.448 100 112V112Z" fill="#989EB1"/>
<path d="M271.381 41L324.614 71.9975C327.388 73.7671 325.62 77 322.632 77L126.861 72.8394C123.238 72.7624 119.846 71.0397 117.647 68.1587V68.1587C111.846 60.5598 116.909 49.5671 126.455 49.0377L271.381 41" fill="#989EB1"/>
<path d="M268.766 85.5183L268.482 78.5246C267.841 62.7306 284.912 52.4702 298.559 60.4471L303.42 63.2889C308.691 66.3699 311.806 72.1317 311.496 78.2291V78.2291C310.943 89.1133 300.094 96.418 289.801 92.8369L268.766 85.5183" fill="#F3F6F9"/>
<path d="M266.752 83C269.257 83 271.74 83.4705 274.071 84.387L316.51 101.073C318.909 102.019 318.251 105.118 315.68 104.997L127.885 96.0956C126.874 96.0476 125.888 95.7661 125.004 95.2731V95.2731C119.105 91.9829 121.441 83 128.195 83H266.752Z" fill="#989EB1"/>
<path d="M270.861 62.2863C270.936 50.751 261.264 41.5438 249.746 42.187L118.883 49.4959C109.98 49.9932 103.023 57.3733 103.053 66.2908V66.2908C103.084 75.528 110.581 83 119.818 83H250.856C261.851 83 270.784 74.125 270.856 63.1304L270.861 62.2863Z" fill="#989EB1"/>
<path d="M110.079 79L110.062 73.7122C110.027 63.1412 118.225 54.3687 128.774 53.6878L201.228 49.0114C209.724 48.4631 216.923 55.1904 216.951 63.7035V63.7035C216.978 71.851 210.403 78.4818 202.256 78.5239L110.079 79" fill="white"/>
<path d="M98 204C98 215.046 106.954 224 118 224H274C285.046 224 294 215.046 294 204V197C294 185.954 285.046 177 274 177H118C106.954 177 98 185.954 98 197V204Z" fill="#142251"/>
<path d="M122 177.5H278C288.77 177.5 297.5 168.77 297.5 158V152C297.5 141.23 288.77 132.5 278 132.5H122C111.23 132.5 102.5 141.23 102.5 152V158C102.5 168.77 111.23 177.5 122 177.5Z" fill="#F3F6F9" stroke="#989EB1"/>
<path d="M107 124C107 128.418 110.582 132 115 132H294C298.418 132 302 128.418 302 124V124C302 119.582 298.418 116 294 116H115C110.582 116 107 119.582 107 124V124Z" fill="#989EB1"/>
<path d="M98 112C98 116.418 101.582 120 106 120H286C290.418 120 294 116.418 294 112V112C294 107.582 290.418 104 286 104H106C101.582 104 98 107.582 98 112V112Z" fill="#142251"/>
<mask id="path-13-inside-1_6822_78" fill="white">
<path d="M299 97H107.48C105.175 97 103.471 94.8583 103.477 92.5533V92.5533C103.483 90.2141 105.247 88.0516 107.586 88.1053L294.501 92.3964C297.002 92.4538 299 94.498 299 97V97"/>
</mask>
<path d="M299 97H107.48C105.175 97 103.471 94.8583 103.477 92.5533V92.5533C103.483 90.2141 105.247 88.0516 107.586 88.1053L294.501 92.3964C297.002 92.4538 299 94.498 299 97V97" fill="#F3F6F9"/>
<path d="M299 98H107.48V96H299V98ZM107.609 87.1055L294.524 91.3967L294.478 93.3962L107.563 89.105L107.609 87.1055ZM294.524 91.3967C297.568 91.4666 300 93.9547 300 97H298C298 95.0414 296.436 93.4411 294.478 93.3962L294.524 91.3967ZM102.477 92.5508C102.484 89.7925 104.579 87.036 107.609 87.1055L107.563 89.105C105.916 89.0672 104.482 90.6357 104.477 92.5557L102.477 92.5508ZM107.48 98C104.494 98 102.47 95.2718 102.477 92.5508L104.477 92.5557C104.472 94.4447 105.856 96 107.48 96V98Z" fill="#989EB1" mask="url(#path-13-inside-1_6822_78)"/>
<path d="M110.577 103.5H299.5C301.157 103.5 302.5 102.157 302.5 100.5C302.5 98.8431 301.157 97.5 299.5 97.5H110.577C109.897 97.5 109.297 97.8454 108.853 98.4104C108.406 98.9793 108.14 99.745 108.14 100.5C108.14 101.255 108.406 102.021 108.853 102.59C109.297 103.155 109.897 103.5 110.577 103.5Z" fill="#F3F6F9" stroke="#142251"/>
<path d="M233 217H127C118.163 217 111 209.837 111 201V201C111 192.163 118.163 185 127 185H213C224.046 185 233 193.954 233 205V217" fill="#F3F6F9"/>
<path d="M270.5 192.017C265.246 192.017 260.971 196.496 260.971 202C260.971 207.504 265.246 211.983 270.5 211.983C275.755 211.983 280.029 207.504 280.029 202C280.029 196.496 275.755 192.017 270.5 192.017ZM270.5 213C264.71 213 260 208.066 260 202C260 195.934 264.71 191 270.5 191C276.29 191 281 195.934 281 202C281 208.066 276.29 213 270.5 213Z" fill="#989EB1"/>
<path d="M269.5 144.971C264.245 144.971 259.971 149.246 259.971 154.5C259.971 159.754 264.245 164.029 269.5 164.029C274.755 164.029 279.029 159.754 279.029 154.5C279.029 149.246 274.755 144.971 269.5 144.971ZM269.5 165C263.71 165 259 160.29 259 154.5C259 148.71 263.71 144 269.5 144C275.29 144 280 148.71 280 154.5C280 160.29 275.29 165 269.5 165Z" fill="#142251"/>
<path d="M243 51.9709C237.996 51.9709 233.925 56.2458 233.925 61.5C233.925 66.7548 237.996 71.0291 243 71.0291C248.004 71.0291 252.075 66.7548 252.075 61.5C252.075 56.2458 248.004 51.9709 243 51.9709ZM243 72C237.486 72 233 67.29 233 61.5C233 55.7106 237.486 51 243 51C248.514 51 253 55.7106 253 61.5C253 67.29 248.514 72 243 72Z" fill="white"/>
<path d="M271 67.9665C271 67.9665 281.159 72.6857 308.334 59.8935C312.081 58.1295 316.392 57.8771 320.242 59.4045V59.4045C331.406 63.8332 332.442 79.1979 321.658 84.482C315.866 87.3194 311.11 89.3414 309.997 88.9519C285.814 80.4912 271 67.9665 271 67.9665" fill="white"/>
<path d="M292.43 83.9832L317.709 92.9917C317.883 93.0538 318 93.219 318 93.4042V93.4042C318 93.6997 317.713 93.9104 317.431 93.8223L270 79L292.43 83.9832Z" fill="#F0F0F0"/>
<path d="M260.608 131.835C260.695 131.871 260.669 132 260.575 132H219.302C219.287 132 219.272 131.996 219.259 131.989V131.989C219.183 131.945 219.214 131.828 219.302 131.828H260.575C260.586 131.828 260.598 131.831 260.608 131.835V131.835ZM167.603 104.035H166.077C166.074 104.035 166.068 104.033 166.066 104.032V104.032C166.049 104.024 166.058 104.001 166.077 104.001C166.578 104.006 167.086 104.017 167.603 104.035Z" fill="#CCCCCC"/>
<path d="M298.837 144.71C291.602 151.233 280.771 151.51 272.697 146.061C254.534 133.801 234.74 124.244 213.903 117.698V117.698C206.117 115.472 207.725 104 215.823 104H296.417C313.164 104 321.096 124.646 308.657 135.859L298.837 144.71Z" fill="white"/>
<path d="M117.966 152.4C119.327 153.716 120.176 155.585 120.176 157.655C120.176 159.61 119.419 161.385 118.189 162.685C117.503 163.409 116.827 164.159 116.321 164.963C115.817 165.764 115.5 166.589 115.5 167.463C115.5 169.692 117.308 171.5 119.537 171.5H139C146.456 171.5 152.5 165.456 152.5 158C152.5 150.544 146.456 144.5 139 144.5H119.141C117.13 144.5 115.5 146.13 115.5 148.141C115.5 149.732 116.649 151.126 117.966 152.4Z" fill="white" stroke="#989EB1"/>
<path d="M143 167.5C143 167.776 142.776 168 142.5 168V168C142.224 168 142 167.776 142 167.5V147.5C142 147.224 142.224 147 142.5 147V147C142.776 147 143 147.224 143 147.5V167.5Z" fill="#142251"/>
<path d="M150 165.5C150 166.881 148.881 168 147.5 168V168C146.119 168 145 166.881 145 165.5V149.5C145 148.119 146.119 147 147.5 147V147C148.881 147 150 148.119 150 149.5V165.5Z" fill="#989EB1"/>
</svg>
